<svg xmlns="http://www.w3.org/2000/svg">
    <svg xmlns="http://www.w3.org/2000/svg" width="20" height="20" fill="000" id="icon-linkedin-icon"
         class="bi bi-linkedin"
         viewBox="0 0 16 16">
        <path d="M0 1.146C0 .513.526 0 1.175 0h13.65C15.474 0 16 .513 16 1.146v13.708c0 .633-.526 1.146-1.175 1.146H1.175C.526 16 0 15.487 0 14.854V1.146zm4.943 12.248V6.169H2.542v7.225h2.401zm-1.2-8.212c.837 0 1.358-.554 1.358-1.248-.015-.709-.52-1.248-1.342-1.248-.822 0-1.359.54-1.359 1.248 0 .694.521 1.248 1.327 1.248h.016zm4.908 8.212V9.359c0-.216.016-.432.08-.586.173-.431.568-.878 1.232-.878.869 0 1.216.662 1.216 1.634v3.865h2.401V9.25c0-2.22-1.184-3.252-2.764-3.252-1.274 0-1.845.7-2.165 1.193v.025h-.016a5.54 5.54 0 0 1 .016-.025V6.169h-2.4c.03.678 0 7.225 0 7.225h2.4z"/>
    </svg>
    <svg xmlns="http://www.w3.org/2000/svg" width="20" height="20" fill="000" id="icon-github-icon"
         class="bi bi-github"
         viewBox="0 0 16 16">
        <path d="M8 0C3.58 0 0 3.58 0 8c0 3.54 2.29 6.53 5.47 7.59.4.07.55-.17.55-.38 0-.19-.01-.82-.01-1.49-2.01.37-2.53-.49-2.69-.94-.09-.23-.48-.94-.82-1.13-.28-.15-.68-.52-.01-.53.63-.01 1.08.58 1.23.82.72 1.21 1.87.87 2.33.66.07-.52.28-.87.51-1.07-1.78-.2-3.64-.89-3.64-3.95 0-.87.31-1.59.82-2.15-.08-.2-.36-1.02.08-2.12 0 0 .67-.21 2.2.82.64-.18 1.32-.27 2-.27.68 0 1.36.09 2 .27 1.53-1.04 2.2-.82 2.2-.82.44 1.1.16 1.92.08 2.12.51.56.82 1.27.82 2.15 0 3.07-1.87 3.75-3.65 3.95.29.25.54.73.54 1.48 0 1.07-.01 1.93-.01 2.2 0 .21.15.46.55.38A8.012 8.012 0 0 0 16 8c0-4.42-3.58-8-8-8z"/>
    </svg>
    <svg xmlns:mydata="http://www.w3.org/2000/svg" version="1.1" xmlns="http://www.w3.org/2000/svg"
         xmlns:xlink="http://www.w3.org/1999/xlink" id="icon-logo-icon" viewBox="65 158.0483374232051 420 153.90332515358978">
        <g fill="#000" fill-rule="nonzero" stroke="none" stroke-width="1" stroke-linecap="butt"
           stroke-linejoin="miter" stroke-miterlimit="10" stroke-dasharray="" stroke-dashoffset="0"
           font-family="none" font-size="none" style="mix-blend-mode: normal">
            <g>
                <g>
                    <path d="M107.42654,159.27672c-0.0767,-0.70773 -0.72448,-1.25689 -1.43543,-1.22724l-7.06695,0.29392c-0.71159,0.02965 -1.25947,0.32357 -1.22724,0.65681c0.03158,0.33324 -0.00773,1.17697 -0.09346,1.8834c-1.37033,11.23725 -5.46973,31.69492 -12.95113,39.08608c-1.76094,1.73967 -4.8516,1.66876 -6.5629,-0.56399c-6.65056,-8.67577 -1.85246,-30.94981 -0.52467,-36.47111c0.1663,-0.69226 -0.26234,-1.30072 -0.97135,-1.36324l-6.98896,-0.61298c-0.70966,-0.06188 -1.43286,0.44475 -1.60238,1.13636c-1.41158,5.76043 -6.54872,29.31134 1.08286,39.27043c2.33073,3.04103 5.59349,4.58217 9.69804,4.58217c7.57293,0 13.62341,-8.16206 17.98256,-24.25993c0.52789,-1.95108 0.99842,-3.90603 1.4161,-5.80877c0.15276,-0.69548 0.27587,-0.68323 0.27651,0.02901c0.01354,13.30628 -1.41867,30.73388 -8.19557,39.3091c-1.93626,2.45061 -4.56928,4.95988 -8.54879,3.27501c-2.98044,-1.26205 -4.2773,-3.8854 -4.80841,-5.44975c-0.22882,-0.67421 -0.89981,-1.1312 -1.59786,-0.99198l-0.63231,0.12569c-0.69806,0.13923 -1.15505,0.81988 -0.93074,1.49538c1.244,3.75005 5.11845,9.23009 13.25407,9.23009c4.79488,0 8.87558,-1.86793 12.1261,-5.55223c12.35749,-14.00305 9.11149,-50.61016 8.30193,-58.07223z"
                          fill="#000"></path>
                    <path d="M137.74843,210.64464l-0.61427,-0.19337c-0.67937,-0.21399 -1.40385,0.16436 -1.67843,0.82117c-0.84308,2.01747 -2.93403,5.98667 -6.8594,7.61418c-1.78543,0.73995 -6.94255,0.92623 -7.59162,-12.9969c-0.03352,-0.71095 0.48793,-1.06546 1.16859,-0.85662c1.40707,0.43056 2.89149,0.65294 4.45197,0.65294c7.97127,0 12.14221,-7.86363 12.14221,-15.63186c0,-3.67399 -0.94299,-7.08693 -2.65558,-9.60909c-2.04454,-3.01138 -5.01338,-4.6028 -8.58553,-4.6028c-4.83871,0 -9.17208,3.22215 -12.2028,9.07346c-2.57824,4.97793 -4.05686,11.51699 -4.05686,17.94196c0,12.21505 5.19708,20.10832 13.24054,20.10832c8.68802,0 12.75132,-7.6825 14.01981,-10.72805c0.27329,-0.65681 -0.09926,-1.37936 -0.77863,-1.59335zM127.52572,179.06509c2.48993,0 4.48162,1.07319 5.91899,3.18992c1.35358,1.99362 2.09933,4.76394 2.09933,7.79917c0,6.1665 -3.06359,12.40906 -8.91941,12.40906c-1.61011,0 -3.11838,-0.29714 -4.51772,-0.87725c-0.65809,-0.27265 -1.15441,-1.13636 -1.13894,-1.8486c0.34677,-16.12817 3.41939,-20.67231 6.55775,-20.67231z"
                          fill="#000"></path>
                    <path d="M191.98279,181.75097c-1.33617,-1.52116 -2.96626,-2.2927 -4.8458,-2.2927c-4.65308,0 -8.31546,4.74009 -11.11478,14.42846c-0.19723,0.68388 -0.40285,0.66776 -0.48987,-0.03867c-0.6278,-5.10942 -1.89372,-9.62521 -4.20124,-12.30142c-1.60302,-1.85891 -3.59406,-2.80126 -5.91706,-2.80126c-7.00636,0 -11.02261,8.47853 -13.32369,18.03219c-0.16694,0.69226 -0.28232,0.67937 -0.26878,-0.03287c0.13085,-6.88261 0.40092,-12.55989 0.52983,-15.00148c0.03738,-0.71095 -0.50533,-1.29879 -1.21757,-1.31361l-7.08435,-0.14567c-0.71159,-0.01483 -1.32328,0.55045 -1.36131,1.2614c-0.2778,5.19128 -1.20017,25.00697 -0.03029,40.14896c0.05479,0.70966 0.68259,1.28396 1.39483,1.28396h7.07791c0.71224,0 1.25496,-0.38867 1.21693,-0.86887c-0.03867,-0.4802 -0.04576,-1.44704 -0.01096,-2.15799c0.46859,-9.56397 2.46544,-27.03991 7.64834,-34.48006c1.52116,-2.18377 2.97658,-1.31748 3.71202,0.11151c4.08264,8.18462 2.60789,27.65933 1.42834,36.45951c-0.09475,0.70579 0.3964,1.30459 1.10735,1.34004l7.05793,0.34677c0.71159,0.03481 1.37162,-0.50791 1.46444,-1.21371c0.272,-2.06259 0.78121,-6.34698 1.07706,-11.45575c1.31941,-9.65034 3.54572,-19.57656 6.66474,-24.74592c0.9533,-1.41932 1.68488,-0.91334 2.12318,0.14825c3.39103,8.21233 3.13836,27.46983 2.27272,35.84266c-0.07284,0.70837 0.42863,1.30523 1.14023,1.33553l7.06566,0.30423c0.71159,0.03094 1.35615,-0.51758 1.41867,-1.2266c0.59364,-6.76014 1.98911,-33.5403 -4.53447,-40.96691z"
                          fill="#000"></path>
                    <path d="M228.2461,210.64464l-0.61427,-0.19337c-0.67937,-0.21399 -1.40385,0.16436 -1.67843,0.82117c-0.84308,2.01747 -2.93403,5.98667 -6.8594,7.61418c-1.78543,0.73995 -6.94255,0.92623 -7.59162,-12.9969c-0.03352,-0.71095 0.48793,-1.06546 1.16859,-0.85662c1.40707,0.43056 2.89149,0.65294 4.45197,0.65294c7.97127,0 12.14221,-7.86363 12.14221,-15.63186c0,-3.67399 -0.94299,-7.08693 -2.65558,-9.60909c-2.04454,-3.01138 -5.01338,-4.6028 -8.58553,-4.6028c-4.83871,0 -9.17208,3.22215 -12.2028,9.07346c-2.57824,4.97793 -4.05686,11.51699 -4.05686,17.94196c0,12.21505 5.19708,20.10832 13.24054,20.10832c8.68802,0 12.75132,-7.6825 14.01981,-10.72805c0.27329,-0.65681 -0.09926,-1.37936 -0.77863,-1.59335zM218.02339,179.06509c2.48993,0 4.48162,1.07319 5.91899,3.18992c1.35358,1.99362 2.09933,4.76394 2.09933,7.79917c0,6.1665 -3.06359,12.40906 -8.91941,12.40906c-1.61011,0 -3.11838,-0.29714 -4.51772,-0.87725c-0.65809,-0.27265 -1.15441,-1.13636 -1.13894,-1.8486c0.34677,-16.12817 3.41939,-20.67231 6.55775,-20.67231z"
                          fill="#000"></path>
                    <path d="M250.3746,221.23217l-0.14825,-0.62716c-0.16436,-0.6929 -0.86822,-1.17116 -1.5753,-1.08802c-1.09897,0.12891 -2.67299,0.2791 -3.76165,0.23462c-0.71159,-0.02901 -1.34455,-0.87789 -1.46637,-1.57917c-2.06324,-11.89277 -0.61556,-44.13621 -0.27716,-50.98659c0.03545,-0.71095 -0.51114,-1.2975 -1.22273,-1.31039l-7.08564,-0.12827c-0.71159,-0.01289 -1.32135,0.55239 -1.36002,1.26334c-0.39512,7.31446 -2.13994,42.4075 0.66132,53.36952c0.85597,3.34849 11.10705,2.90696 15.26381,2.32879c0.70515,-0.09862 1.13636,-0.78443 0.972,-1.47669z"
                          fill="#000"></path>
                    <path d="M262.7288,181.15927l-7.08435,-0.1476c-0.71159,-0.01483 -1.32328,0.54852 -1.36195,1.25947c-0.27909,5.14681 -1.19824,24.68598 -0.029,39.79832c0.05479,0.70966 0.68259,1.26849 1.39418,1.24787l7.0792,-0.20497c0.71159,-0.02063 1.2382,-0.61233 1.18341,-1.32199c-1.14989,-14.89319 -0.24171,-34.20355 0.03481,-39.31748c0.03803,-0.71095 -0.50405,-1.29879 -1.21628,-1.31361zM260.84412,166.37501c-3.16092,-0.53627 -5.66632,1.93303 -6.25545,5.40463c-0.58913,3.47095 0.49051,6.48491 3.64047,7.08371c2.9089,0.55303 6.20066,-1.8428 6.78979,-5.31375c0.58913,-3.47095 -1.01454,-6.63832 -4.17481,-7.17459z"
                          fill="#000"></path>
                    <path d="M300.19937,182.55216c-1.14151,-2.20117 -4.48742,-6.47976 -13.56604,-6.70406c-6.1549,-0.15212 -10.59591,2.73293 -12.46514,4.21477c-0.55819,0.44217 -0.5743,1.26076 -0.08057,1.77383l0.44604,0.46473c0.49373,0.51371 1.31683,0.53563 1.8892,0.11151c1.38645,-1.02807 4.1529,-2.71359 7.87136,-3.17639c1.61978,-0.20175 3.63854,0.76896 5.22931,2.69297c1.57788,1.90725 2.64785,4.59249 3.35042,7.67348c0.15856,0.69419 -0.23269,0.9649 -0.87402,0.65616c-2.15863,-1.04096 -4.85031,-1.74998 -8.18397,-1.74998c-4.75363,0 -8.76665,1.91563 -11.60465,5.5387c-2.46609,3.14674 -3.82353,7.33702 -3.82353,11.79802c0,8.24843 4.87738,17.12594 15.58545,17.12594c2.99656,0 5.4852,-0.69484 7.54199,-1.82217c0.62458,-0.34226 1.07061,-0.47311 1.03194,-0.22946c-0.03867,0.243 0.5034,0.47826 1.21435,0.52532l6.55066,0.43379c0.7103,0.04705 1.39289,-0.48278 1.51085,-1.1847c0.92945,-5.52968 4.06395,-27.17398 -1.62365,-38.14245zM293.37735,214.45978c-0.07348,0.70837 -0.50662,1.72871 -1.02227,2.21922c-1.53856,1.46251 -3.58117,2.58791 -6.2967,2.92501c-3.732,0.46279 -8.00221,-2.88376 -8.00221,-13.75812c0,-11.58853 6.23676,-14.46843 9.70964,-13.68335c2.08064,0.47053 3.7146,1.30523 4.98824,2.25145c0.57172,0.42476 1.04934,1.39483 1.10155,2.10513c0.46859,6.31539 0.02643,13.07037 -0.47826,17.94067z"
                          fill="#000"></path>
                    <path d="M340.57501,180.78027c-1.85827,-2.20568 -4.23024,-3.32399 -7.05019,-3.32399c-7.05857,0 -12.22149,7.09467 -15.36437,21.08741c-0.15598,0.69484 -0.26491,0.68259 -0.25073,-0.02901c0.1244,-6.41208 0.39576,-11.62463 0.53047,-13.93538c0.04125,-0.71095 -0.4976,-1.29943 -1.20919,-1.31619l-7.08371,-0.16307c-0.71159,-0.01676 -1.32715,0.54594 -1.36904,1.25689c-0.28683,4.86062 -1.18277,22.56538 -0.0232,37.46631c0.05543,0.70966 0.68323,1.28525 1.39483,1.28525h7.07855c0.71159,0 1.27945,-0.10829 1.26914,-0.24235c-0.01031,-0.13407 -0.00516,-0.81923 0.02191,-1.53083c0.37642,-9.76185 2.4577,-28.42636 8.41086,-36.6258c2.10964,-2.94241 4.46873,-2.69555 5.85131,-0.17339c4.41265,8.22007 2.74067,27.89975 1.44703,36.3538c-0.10764,0.70386 0.36998,1.30588 1.08093,1.34649l7.04761,0.40092c0.71095,0.04061 1.38129,-0.49567 1.48507,-1.20017c0.89916,-6.11365 4.13356,-31.87153 -3.26727,-40.65688z"
                          fill="#000"></path>
                    <path d="M376.48462,210.64464l-0.61427,-0.19337c-0.67937,-0.21399 -1.40385,0.16436 -1.67843,0.82117c-0.84308,2.01747 -2.93403,5.98667 -6.8594,7.61418c-1.78543,0.73995 -6.94255,0.92623 -7.59162,-12.9969c-0.03352,-0.71095 0.48793,-1.06546 1.16859,-0.85662c1.40707,0.43056 2.89149,0.65294 4.45197,0.65294c7.97127,0 12.14221,-7.86363 12.14221,-15.63186c0,-3.67399 -0.94299,-7.08693 -2.65558,-9.60909c-2.04454,-3.01138 -5.01338,-4.6028 -8.58553,-4.6028c-4.83871,0 -9.17208,3.22215 -12.2028,9.07346c-2.57824,4.97793 -4.05686,11.51699 -4.05686,17.94196c0,12.21505 5.19708,20.10832 13.24054,20.10832c8.68802,0 12.75132,-7.6825 14.01981,-10.72805c0.27329,-0.65681 -0.09926,-1.37936 -0.77863,-1.59335zM366.26191,179.06509c2.48993,0 4.48162,1.07319 5.91899,3.18992c1.35358,1.99362 2.09933,4.76394 2.09933,7.79917c0,6.1665 -3.06359,12.40906 -8.91941,12.40906c-1.61011,0 -3.11838,-0.29714 -4.51772,-0.87725c-0.65809,-0.27265 -1.15441,-1.13636 -1.13894,-1.8486c0.34677,-16.12817 3.41939,-20.67231 6.55775,-20.67231z"
                          fill="#000"></path>
                    <path d="M413.21374,180.78027c-1.85827,-2.20568 -4.23024,-3.32399 -7.05019,-3.32399c-7.05857,0 -12.22149,7.09467 -15.36437,21.08741c-0.15598,0.69484 -0.26491,0.68259 -0.25073,-0.02901c0.1244,-6.41208 0.39576,-11.62463 0.53047,-13.93538c0.04125,-0.71095 -0.4976,-1.29943 -1.20919,-1.31619l-7.08371,-0.16307c-0.71159,-0.01676 -1.32715,0.54594 -1.36904,1.25689c-0.28683,4.86062 -1.18277,22.56538 -0.0232,37.46631c0.05543,0.70966 0.68323,1.28525 1.39483,1.28525h7.07855c0.71159,0 1.27945,-0.10829 1.26914,-0.24235c-0.01031,-0.13407 -0.00516,-0.81923 0.02191,-1.53083c0.37642,-9.76185 2.4577,-28.42636 8.41086,-36.6258c2.10964,-2.94241 4.46873,-2.69555 5.85131,-0.17339c4.41265,8.22007 2.74067,27.89975 1.44703,36.3538c-0.10764,0.70386 0.36998,1.30588 1.08093,1.34649l7.04761,0.40092c0.71095,0.04061 1.38129,-0.49567 1.48507,-1.20017c0.89916,-6.11365 4.13356,-31.87153 -3.26727,-40.65688z"
                          fill="#000"></path>
                    <path d="M449.69588,218.18985c-7.18813,-3.92601 -8.97227,-20.74579 -9.41701,-27.63097c-0.04576,-0.7103 0.35838,-1.66747 0.90625,-2.12189c2.05937,-1.71002 4.39525,-3.37814 7.01925,-4.8748c0.61813,-0.35257 0.85597,-1.13185 0.5208,-1.75965l-0.30423,-0.5685c-0.33582,-0.6278 -1.11702,-0.86693 -1.73644,-0.51565c-5.59735,3.17446 -9.94104,7.03021 -13.15739,10.54306c-0.48084,0.52532 -0.84437,0.38351 -0.82439,-0.32808c0.31326,-11.36874 0.72513,-21.8699 0.87016,-25.44141c0.02836,-0.71159 -0.52403,-1.29621 -1.23626,-1.30652l-7.08822,-0.09926c-0.71159,-0.01031 -1.31361,0.55883 -1.34262,1.26978c-0.29843,7.28288 -1.66619,42.14001 -1.14925,56.4518c0.02578,0.71159 0.63167,1.27816 1.34326,1.26656l7.08693,-0.11667c0.71159,-0.0116 1.26011,-0.59815 1.23497,-1.30974c-0.15018,-4.2238 -0.13278,-10.33809 -0.02643,-17.01766c0.0116,-0.71159 0.1895,-0.73544 0.4151,-0.05994c2.49187,7.4698 7.42404,16.53424 16.77853,17.29998c0.70966,0.05801 1.28783,-0.52532 1.28783,-1.23691v-0.64456c0.00065,-0.71159 -0.55625,-1.45735 -1.18083,-1.79896z"
                          fill="#000"></path>
                    <path d="M468.6514,178.82725c-10.83247,0 -16.67733,11.94433 -16.67733,23.18287c0,5.57802 1.38902,10.7274 3.91183,14.50001c2.98302,4.46164 7.35507,6.81944 12.64368,6.81944c13.44422,0 16.47043,-17.20974 16.47043,-23.23895c0,-13.1155 -6.26447,-21.26337 -16.34861,-21.26337zM471.70983,219.63109c-3.69333,1.07706 -10.06737,-1.96784 -10.06737,-17.62097c0,-18.00126 7.19715,-20.55178 11.04517,-19.34065c5.78943,1.82217 9.08958,8.12016 9.08958,17.4218c0,4.63889 -1.88405,17.1543 -10.06737,19.53982z"
                          fill="#000"></path>
                    <path d="M156.6431,293.15011l-0.4744,-0.43637c-0.52403,-0.48149 -1.36067,-0.45893 -1.96075,-0.0767c-0.90947,0.57946 -2.41903,1.26269 -4.48484,1.26269c-15.58674,0 -16.39244,-40.00007 -16.41822,-40.40421l-0.17919,-5.42655c-0.0232,-0.71159 0.35451,-1.70679 0.85404,-2.21406c4.04268,-4.10455 8.98,-8.17559 14.82551,-11.40032c0.62329,-0.34419 0.86822,-1.12089 0.53885,-1.75256l-0.29843,-0.57172c-0.32937,-0.63102 -1.10864,-0.8766 -1.73258,-0.53434c-9.87336,5.42332 -17.19878,12.99174 -22.14835,19.39544c-0.43508,0.56334 -0.7522,0.4499 -0.7174,-0.26105c0.32099,-6.42884 0.62007,-11.52601 0.75736,-13.79937c0.04254,-0.71095 -0.49824,-1.29814 -1.20984,-1.31361l-7.08435,-0.14954c-0.71159,-0.01483 -1.32521,0.54852 -1.36775,1.25947c-0.37127,6.14458 -1.92208,32.91056 -1.90725,50.97821c0.00065,0.71224 0.58075,1.28783 1.29299,1.28654l7.09015,-0.01225c0.71159,-0.00129 1.2859,-0.57881 1.28525,-1.29105c-0.00645,-8.48111 0.33388,-18.89848 0.7348,-28.18014c0.03094,-0.71159 0.12762,-0.71546 0.2256,-0.01031c1.64491,11.86441 7.30608,37.62358 25.45881,37.62358c3.33882,0 5.68244,-1.33295 6.90194,-2.25209c0.56786,-0.42734 0.54272,-1.23755 0.01805,-1.71968z"
                          fill="#000"></path>
                    <path d="M194.78933,253.93035c-1.91563,-2.34426 -4.41459,-3.53348 -7.42597,-3.53348c-3.68366,0 -6.92192,1.41674 -9.62392,4.21219c-2.40485,2.48735 -4.2064,5.9061 -5.55675,9.70384c-0.23849,0.67099 -0.39898,0.64392 -0.379,-0.06768c0.32486,-11.4925 0.76509,-22.23343 0.9185,-25.85521c0.03029,-0.71159 -0.52209,-1.29685 -1.23369,-1.30781l-7.08758,-0.10635c-0.71159,-0.01096 -1.3149,0.5569 -1.3452,1.26849c-0.3081,7.18361 -1.70422,41.24407 -1.18986,55.49463c0.02578,0.71159 0.63167,1.27881 1.34326,1.26656l7.08693,-0.11602c0.71159,-0.0116 1.26011,-0.59751 1.23497,-1.3091c-0.03481,-0.98424 -0.06059,-2.06839 -0.07799,-3.23504c0.16694,-8.09696 1.37678,-26.02344 8.60229,-33.49646c2.10126,-2.17345 4.49967,-2.46093 5.79201,-0.88047c6.58482,8.0557 2.67428,32.49998 1.61978,38.35322c-0.12633,0.70064 0.33775,1.30523 1.0487,1.35293l7.0315,0.46988c0.7103,0.0477 1.39998,-0.4802 1.5289,-1.18019c1.12024,-6.09366 5.27701,-31.77871 -2.2869,-41.03394z"
                          fill="#000"></path>
                    <path d="M248.98387,246.32648c-1.3091,-4.07942 -5.9351,-7.87587 -13.5235,-7.87587c-11.92306,0 -17.80982,12.4935 -21.51088,26.44692c-0.18241,0.68839 -0.272,0.68194 -0.26427,-0.03029c0.03287,-2.95853 0.06317,-5.35887 0.08122,-6.74145c0.00967,-0.71159 -0.56012,-1.2917 -1.27172,-1.29492l-7.09015,-0.03352c-0.71159,-0.00322 -1.29685,0.57043 -1.30652,1.28267c-0.0767,5.82424 -0.36482,29.12055 -0.18241,37.20204c0.01611,0.71159 0.61555,1.28074 1.32779,1.27171l7.08758,-0.09346c0.71159,-0.00967 1.26785,-0.56528 1.25238,-1.24271c-0.00838,-0.37578 -0.01547,-0.78636 -0.02256,-1.22724c1.001,-14.30858 6.22902,-51.71494 21.89955,-51.71494c4.46164,0 5.93897,2.02843 6.21226,4.42748c0.08057,0.70708 0.67614,1.25625 1.38709,1.22144l4.92572,-0.28232c0.71095,-0.03287 1.21564,-0.63811 0.99842,-1.31555z"
                          fill="#000"></path>
                    <path d="M261.29703,252.93709l-6.78721,-0.00065c0,0 -0.35644,-0.00773 -0.79603,-0.01805c-0.43959,-0.01031 -0.80828,0.56012 -0.83599,1.27107c-0.32357,8.32771 -2.138,24.06656 -7.24936,32.34464c-2.3159,3.61598 -6.37534,3.53347 -7.80368,-0.13407c-3.40263,-8.737 -1.8776,-25.46912 -0.66905,-33.2728c0.10893,-0.70386 -0.36869,-1.30523 -1.07964,-1.34584l-7.04761,-0.40092c-0.71095,-0.04061 -1.38387,0.49567 -1.49151,1.19952c-0.90883,5.9538 -4.111,30.48831 3.27243,39.25303c1.85827,2.20568 4.23024,3.32399 7.05019,3.32399c6.88647,0 11.18375,-6.53132 13.86318,-14.45747c0.22817,-0.67421 0.36418,-0.64972 0.31906,0.06059c-0.45313,7.08886 -1.14087,13.90508 -2.18506,18.18431c-0.98424,4.03301 -2.80061,6.86263 -5.39883,8.40828c-2.39132,1.42254 -4.97084,1.45993 -6.46557,1.31619c-0.70837,-0.06832 -1.42319,0.35515 -1.60882,1.04225l-0.16823,0.62264c-0.18563,0.6871 0.22431,1.38838 0.9301,1.48377c0.54143,0.07284 1.23111,0.13407 2.02263,0.13407c15.47265,0 19.06349,-7.31704 20.26559,-12.24276c2.7903,-11.43577 3.11064,-39.09188 3.14738,-45.48398c0.00451,-0.71095 -0.57172,-1.28783 -1.28396,-1.28783z"
                          fill="#000"></path>
                    <path d="M282.23655,253.56166c4.25216,0.24364 6.51392,2.58146 7.357,5.07977c0.22753,0.67485 0.87531,1.16214 1.57917,1.05385l0.63683,-0.09862c0.70386,-0.10893 1.19308,-0.77025 0.99842,-1.45542c-1.09511,-3.85318 -4.57251,-7.82817 -11.41128,-7.82817c-9.76379,0 -14.15581,6.43206 -14.15581,13.78004c0,14.04624 15.15746,21.49284 15.15746,27.32094c0,2.93468 -3.7913,2.68717 -4.69819,2.47382c-1.20017,-0.28232 -2.28625,-0.74124 -3.15576,-1.34713c-1.27816,-0.89207 -2.0671,-2.05614 -2.35458,-3.47353c-0.1418,-0.69741 -0.70128,-1.28074 -1.41288,-1.28074h-0.64456c-0.71159,0 -1.29943,0.57946 -1.2079,1.2859c0.32357,2.50734 1.61333,4.6028 3.77712,6.11171c2.08322,1.45348 4.87803,2.25338 7.86943,2.25338c5.71209,0 11.49572,-2.98689 11.49572,-8.69511c0,-8.33995 -15.15746,-14.62312 -15.15746,-26.81303c0,-6.55581 3.43744,-8.47596 5.32728,-8.36767z"
                          fill="#000"></path>
                    <path d="M319.64063,301.13402l-0.16372,-0.62329c-0.18112,-0.68839 -0.9069,-1.18792 -1.61462,-1.26269c-2.23469,-0.23591 -6.68859,-1.68359 -7.67541,-9.32226c-0.90238,-6.99089 -0.87144,-16.24806 -0.47762,-25.10752c0.03158,-0.71159 0.63554,-1.25173 1.34391,-1.18083c0.65939,0.06574 1.31619,0.14889 1.96655,0.25267c0.70321,0.11215 1.38387,-0.33517 1.5276,-1.03258l0.12956,-0.63167c0.14309,-0.69741 -0.30552,-1.38065 -1.00809,-1.49602c-0.80957,-0.13213 -1.62622,-0.23591 -2.44288,-0.31455c-0.70902,-0.06832 -1.25174,-0.68065 -1.20855,-1.3916c0.60782,-9.86949 1.53018,-18.42344 1.88856,-21.56631c0.08057,-0.70708 -0.4267,-1.3033 -1.13829,-1.33166l-7.06824,-0.28425c-0.71159,-0.02836 -1.35873,0.52016 -1.44188,1.22724c-0.38222,3.2402 -1.36453,12.03908 -1.98718,22.18896c-0.04383,0.7103 -0.651,1.3452 -1.35744,1.43092c-1.37742,0.16759 -2.51701,0.34806 -3.31755,0.48793c-0.70128,0.12247 -1.14603,0.80377 -0.99778,1.50054l0.13407,0.63038c0.14825,0.69612 0.8347,1.14603 1.53663,1.02678c0.63102,-0.107 1.47411,-0.23913 2.47382,-0.36869c0.70644,-0.09153 1.25238,0.42348 1.22208,1.13443c-0.38158,8.84916 -0.37964,18.09472 0.57946,25.22677c1.77834,13.22443 14.11779,12.77517 18.15273,12.26145c0.70579,-0.09024 1.1254,-0.76509 0.94428,-1.45413z"
                          fill="#000"></path>
                    <path d="M353.46031,252.93709l-6.78721,-0.00065c0,0 -0.35644,-0.00773 -0.79603,-0.01805c-0.43959,-0.01031 -0.80828,0.56012 -0.83599,1.27107c-0.32357,8.32771 -2.138,24.06656 -7.24936,32.34464c-2.3159,3.61598 -6.37534,3.53347 -7.80368,-0.13407c-3.40263,-8.737 -1.8776,-25.46912 -0.66905,-33.2728c0.10893,-0.70386 -0.36869,-1.30523 -1.07964,-1.34584l-7.04761,-0.40092c-0.71095,-0.04061 -1.38387,0.49567 -1.49151,1.19952c-0.90883,5.9538 -4.111,30.48831 3.27243,39.25303c1.85827,2.20568 4.23024,3.32399 7.05019,3.32399c6.88647,0 11.18375,-6.53132 13.86318,-14.45747c0.22817,-0.67421 0.36418,-0.64972 0.31906,0.06059c-0.45313,7.08886 -1.14087,13.90508 -2.18506,18.18431c-0.98424,4.03301 -2.80061,6.86263 -5.39883,8.40828c-2.39132,1.42254 -4.97084,1.45993 -6.46557,1.31619c-0.70837,-0.06832 -1.42319,0.35515 -1.60882,1.04225l-0.16823,0.62264c-0.18563,0.6871 0.22431,1.38838 0.9301,1.48377c0.54143,0.07284 1.23111,0.13407 2.02263,0.13407c15.47265,0 19.06349,-7.31704 20.26559,-12.24276c2.7903,-11.43577 3.11064,-39.09188 3.14738,-45.48398c0.00451,-0.71095 -0.57172,-1.28783 -1.28396,-1.28783z"
                          fill="#000"></path>
                    <path d="M391.80201,253.67124c-1.85827,-2.20568 -4.23024,-3.32399 -7.05019,-3.32399c-7.05857,0 -12.22149,7.09467 -15.36437,21.08741c-0.15598,0.69484 -0.26491,0.68259 -0.25073,-0.02901c0.1244,-6.41208 0.39576,-11.62463 0.53047,-13.93538c0.04125,-0.71095 -0.4976,-1.29943 -1.20919,-1.31619l-7.08371,-0.16307c-0.71159,-0.01676 -1.32715,0.54594 -1.36904,1.25689c-0.28683,4.86062 -1.18277,22.56538 -0.0232,37.46631c0.05543,0.70966 0.68323,1.28525 1.39483,1.28525h7.07855c0.71159,0 1.27945,-0.10829 1.26914,-0.24235c-0.01031,-0.13407 -0.00516,-0.81923 0.02191,-1.53083c0.37642,-9.76185 2.4577,-28.42636 8.41086,-36.6258c2.10964,-2.94241 4.46873,-2.69555 5.85131,-0.17339c4.41265,8.22007 2.74067,27.89975 1.44703,36.3538c-0.10764,0.70386 0.36998,1.30588 1.08093,1.34649l7.04761,0.40092c0.71095,0.04061 1.38129,-0.49567 1.48507,-1.20017c0.89916,-6.11365 4.13356,-31.87153 -3.26727,-40.65688z"
                          fill="#000"></path>
                    <path d="M433.04083,255.44313c-1.14151,-2.20117 -4.48742,-6.47976 -13.56604,-6.70406c-6.1549,-0.15212 -10.59591,2.73293 -12.46514,4.21477c-0.55819,0.44217 -0.5743,1.26076 -0.08057,1.77383l0.44604,0.46473c0.49373,0.51371 1.31683,0.53563 1.8892,0.11151c1.38645,-1.02807 4.1529,-2.71359 7.87136,-3.17639c1.61978,-0.20175 3.63854,0.76896 5.22931,2.69297c1.57788,1.90725 2.64785,4.59249 3.35042,7.67348c0.15856,0.69419 -0.23269,0.9649 -0.87402,0.65616c-2.15863,-1.04096 -4.85031,-1.74998 -8.18397,-1.74998c-4.75363,0 -8.76665,1.91563 -11.60465,5.5387c-2.46609,3.14674 -3.82353,7.33702 -3.82353,11.79802c0,8.24843 4.87738,17.12594 15.58545,17.12594c2.99656,0 5.4852,-0.69484 7.54199,-1.82217c0.62458,-0.34226 1.07061,-0.47311 1.03194,-0.22946c-0.03867,0.243 0.5034,0.47826 1.21435,0.52532l6.55066,0.43379c0.7103,0.04705 1.39289,-0.48278 1.51085,-1.1847c0.92945,-5.52968 4.06395,-27.17398 -1.62365,-38.14245zM426.21881,287.35075c-0.07348,0.70837 -0.50662,1.72871 -1.02227,2.21922c-1.53856,1.46251 -3.58117,2.58791 -6.2967,2.92501c-3.732,0.46279 -8.00221,-2.88376 -8.00221,-13.75812c0,-11.58853 6.23676,-14.46843 9.70964,-13.68335c2.08064,0.47053 3.7146,1.30523 4.98824,2.25145c0.57172,0.42476 1.04934,1.39483 1.10155,2.10513c0.46859,6.31539 0.02643,13.07037 -0.47826,17.94067z"
                          fill="#000"></path>
                </g>
            </g>
        </g>
    </svg>
</svg>
